AbhayaLibreLatin-ExtraBold.ufo
<glyph name="asterisk" format="1">
  <advance width="383"/>
  <unicode hex="002A"/>
  <outline>
    <contour>
      <point x="240" y="640"/>
      <point x="218" y="650"/>
      <point x="194" y="650" type="curve" smooth="yes"/>
      <point x="169" y="650"/>
      <point x="146" y="639"/>
      <point x="146" y="615" type="curve" smooth="yes"/>
      <point x="146" y="581"/>
      <point x="178" y="538"/>
      <point x="187" y="469" type="curve"/>
      <point x="199" y="469" type="line"/>
      <point x="208" y="538"/>
      <point x="240" y="583"/>
      <point x="240" y="616" type="curve" smooth="yes"/>
    </contour>
    <contour>
      <point x="146" y="315"/>
      <point x="168" y="305"/>
      <point x="192" y="305" type="curve" smooth="yes"/>
      <point x="217" y="305"/>
      <point x="240" y="316"/>
      <point x="240" y="340" type="curve" smooth="yes"/>
      <point x="240" y="374"/>
      <point x="208" y="417"/>
      <point x="199" y="486" type="curve"/>
      <point x="187" y="486" type="line"/>
      <point x="178" y="417"/>
      <point x="146" y="372"/>
      <point x="146" y="339" type="curve" smooth="yes"/>
    </contour>
    <contour>
      <point x="347" y="512"/>
      <point x="352" y="522"/>
      <point x="352" y="533" type="curve" smooth="yes"/>
      <point x="352" y="559"/>
      <point x="328" y="591"/>
      <point x="304" y="591" type="curve" smooth="yes"/>
      <point x="266" y="591"/>
      <point x="239" y="515"/>
      <point x="183" y="478" type="curve"/>
      <point x="189" y="468" type="line"/>
      <point x="253" y="495"/>
      <point x="308" y="490"/>
      <point x="336" y="506" type="curve" smooth="yes"/>
    </contour>
    <contour>
      <point x="39" y="443"/>
      <point x="34" y="433"/>
      <point x="34" y="422" type="curve" smooth="yes"/>
      <point x="34" y="396"/>
      <point x="58" y="364"/>
      <point x="82" y="364" type="curve" smooth="yes"/>
      <point x="117" y="364"/>
      <point x="145" y="432"/>
      <point x="203" y="477" type="curve"/>
      <point x="197" y="487" type="line"/>
      <point x="133" y="460"/>
      <point x="78" y="465"/>
      <point x="50" y="449" type="curve" smooth="yes"/>
    </contour>
    <contour>
      <point x="271" y="363"/>
      <point x="305" y="363" type="curve" smooth="yes"/>
      <point x="330" y="363"/>
      <point x="351" y="396"/>
      <point x="351" y="422" type="curve" smooth="yes"/>
      <point x="351" y="433"/>
      <point x="347" y="443"/>
      <point x="336" y="449" type="curve" smooth="yes"/>
      <point x="306" y="467"/>
      <point x="253" y="460"/>
      <point x="188" y="486" type="curve"/>
      <point x="183" y="476" type="line"/>
      <point x="235" y="440"/>
    </contour>
    <contour>
      <point x="113" y="592"/>
      <point x="81" y="592" type="curve" smooth="yes"/>
      <point x="56" y="592"/>
      <point x="35" y="559"/>
      <point x="35" y="533" type="curve" smooth="yes"/>
      <point x="35" y="522"/>
      <point x="39" y="512"/>
      <point x="50" y="506" type="curve" smooth="yes"/>
      <point x="80" y="488"/>
      <point x="133" y="495"/>
      <point x="198" y="469" type="curve"/>
      <point x="203" y="479" type="line"/>
      <point x="145" y="523"/>
    </contour>
  </outline>
</glyph>
<glyph name="period" format="1">
  <advance width="191"/>
  <unicode hex="002E"/>
  <outline>
    <contour>
      <point x="134" y="-5"/>
      <point x="166" y="25"/>
      <point x="166" y="65" type="curve" smooth="yes"/>
      <point x="166" y="104"/>
      <point x="134" y="136"/>
      <point x="95" y="136" type="curve" smooth="yes"/>
      <point x="56" y="136"/>
      <point x="25" y="104"/>
      <point x="25" y="65" type="curve" smooth="yes"/>
      <point x="25" y="25"/>
      <point x="56" y="-5"/>
      <point x="95" y="-5" type="curve" smooth="yes"/>
    </contour>
  </outline>
</glyph>
<glyph name="zero" format="1">
  <advance width="568"/>
  <unicode hex="0030"/>
  <outline>
    <contour>
      <point x="533" y="443"/>
      <point x="441" y="550"/>
      <point x="288" y="550" type="curve" smooth="yes"/>
      <point x="133" y="550"/>
      <point x="35" y="437"/>
      <point x="35" y="272" type="curve" smooth="yes"/>
      <point x="35" y="102"/>
      <point x="128" y="-10"/>
      <point x="283" y="-10" type="curve" smooth="yes"/>
      <point x="437" y="-10"/>
      <point x="533" y="103"/>
      <point x="533" y="268" type="curve" smooth="yes"/>
    </contour>
    <contour>
      <point x="389" y="98"/>
      <point x="364" y="17"/>
      <point x="286" y="17" type="curve" smooth="yes"/>
      <point x="208" y="17"/>
      <point x="179" y="88"/>
      <point x="179" y="268" type="curve" smooth="yes"/>
      <point x="179" y="438"/>
      <point x="207" y="523"/>
      <point x="285" y="523" type="curve" smooth="yes"/>
      <point x="361" y="523"/>
      <point x="389" y="440"/>
      <point x="389" y="273" type="curve" smooth="yes"/>
    </contour>
  </outline>
</glyph>
<glyph name="four" format="1">
  <advance width="532"/>
  <unicode hex="0034"/>
  <outline>
    <contour>
      <point x="177" y="227"/>
      <point x="405" y="389"/>
      <point x="405" y="490" type="curve" smooth="yes"/>
      <point x="405" y="533"/>
      <point x="371" y="555"/>
      <point x="329" y="555" type="curve" smooth="yes"/>
      <point x="192" y="555"/>
      <point x="314" y="365"/>
      <point x="5" y="118" type="curve"/>
      <point x="41" y="110" type="line"/>
    </contour>
    <contour>
      <point x="489" y="-65" type="line"/>
      <point x="489" y="-42"/>
      <point x="484" y="-38"/>
      <point x="465" y="-38" type="curve" smooth="yes"/>
      <point x="159" y="-38" type="line"/>
      <point x="159" y="-65" type="line"/>
    </contour>
    <contour>
      <point x="489" y="116" type="line"/>
      <point x="5" y="118" type="line"/>
      <point x="11" y="88" type="line"/>
      <point x="489" y="86" type="line"/>
    </contour>
    <contour>
      <point x="402" y="-65" type="line"/>
      <point x="402" y="328" type="line"/>
      <point x="379" y="328" type="line"/>
      <point x="365" y="285" type="line" smooth="yes"/>
      <point x="351" y="242"/>
      <point x="326" y="237"/>
      <point x="285" y="237" type="curve" smooth="yes"/>
      <point x="273" y="237" type="line"/>
      <point x="273" y="-65" type="line"/>
    </contour>
  </outline>
</glyph>
<glyph name="I" format="1">
  <advance width="340"/>
  <unicode hex="0049"/>
  <outline>
    <contour>
      <point x="320" y="573" type="line"/>
      <point x="320" y="600" type="line"/>
      <point x="20" y="600" type="line"/>
      <point x="20" y="573" type="line"/>
    </contour>
    <contour>
      <point x="320" y="0" type="line"/>
      <point x="320" y="20"/>
      <point x="313" y="27"/>
      <point x="293" y="27" type="curve" smooth="yes"/>
      <point x="20" y="27" type="line"/>
      <point x="20" y="0" type="line"/>
    </contour>
    <component base="vertical_stem_upper" xOffset="58"/>
    <contour>
      <point x="300" y="9" type="move" name="ogonek"/>
    </contour>
    <contour>
      <point x="166" y="630" type="move" name="top"/>
    </contour>
  </outline>
</glyph>
<glyph name="S" format="1">
  <advance width="558"/>
  <unicode hex="0053"/>
  <outline>
    <contour>
      <point x="398" y="-10"/>
      <point x="517" y="46"/>
      <point x="517" y="167" type="curve" smooth="yes"/>
      <point x="517" y="354"/>
      <point x="206" y="343"/>
      <point x="206" y="496" type="curve" smooth="yes"/>
      <point x="206" y="551"/>
      <point x="250" y="580"/>
      <point x="303" y="580" type="curve" smooth="yes"/>
      <point x="381" y="580"/>
      <point x="451" y="528"/>
      <point x="452" y="425" type="curve"/>
      <point x="491" y="425" type="line"/>
      <point x="491" y="606" type="line"/>
      <point x="466" y="606"/>
      <point x="457" y="599"/>
      <point x="457" y="571" type="curve"/>
      <point x="402" y="597"/>
      <point x="343" y="610"/>
      <point x="282" y="610" type="curve" smooth="yes"/>
      <point x="166" y="610"/>
      <point x="61" y="557"/>
      <point x="61" y="450" type="curve" smooth="yes"/>
      <point x="61" y="264"/>
      <point x="380" y="272"/>
      <point x="380" y="123" type="curve" smooth="yes"/>
      <point x="380" y="59"/>
      <point x="336" y="19"/>
      <point x="265" y="19" type="curve" smooth="yes"/>
      <point x="164" y="19"/>
      <point x="102" y="93"/>
      <point x="94" y="210" type="curve"/>
      <point x="55" y="210" type="line"/>
      <point x="55" y="-2" type="line"/>
      <point x="83" y="-2"/>
      <point x="89" y="5"/>
      <point x="89" y="41" type="curve"/>
      <point x="143" y="5"/>
      <point x="209" y="-10"/>
      <point x="275" y="-10" type="curve" smooth="yes"/>
    </contour>
    <contour>
      <point x="302" y="630" type="move" name="top"/>
    </contour>
    <contour>
      <point x="294" y="0" type="move" name="bottom"/>
    </contour>
  </outline>
</glyph>
<glyph name="U" format="1">
  <advance width="647"/>
  <unicode hex="0055"/>
  <outline>
    <contour>
      <point x="10" y="573" type="line"/>
      <point x="10" y="600" type="line"/>
      <point x="310" y="600" type="line"/>
      <point x="310" y="573" type="line"/>
    </contour>
    <contour>
      <point x="445" y="573" type="line"/>
      <point x="445" y="600" type="line"/>
      <point x="642" y="600" type="line"/>
      <point x="642" y="573" type="line"/>
    </contour>
    <contour>
      <point x="562" y="600" type="line"/>
      <point x="562" y="234" type="line" smooth="yes"/>
      <point x="562" y="69"/>
      <point x="498" y="-10"/>
      <point x="343" y="-10" type="curve" smooth="yes"/>
      <point x="188" y="-10"/>
      <point x="90" y="54"/>
      <point x="90" y="220" type="curve" smooth="yes"/>
      <point x="90" y="600" type="line"/>
      <point x="230" y="600" type="line"/>
      <point x="230" y="228" type="line" smooth="yes"/>
      <point x="230" y="83"/>
      <point x="272" y="20"/>
      <point x="364" y="20" type="curve" smooth="yes"/>
      <point x="464" y="20"/>
      <point x="525" y="78"/>
      <point x="525" y="228" type="curve" smooth="yes"/>
      <point x="525" y="600" type="line"/>
    </contour>
    <contour>
      <point x="491" y="9" type="move" name="ogonek"/>
    </contour>
    <contour>
      <point x="348" y="630" type="move" name="top"/>
    </contour>
  </outline>
</glyph>
<glyph name="yen" format="1">
  <advance width="574"/>
  <unicode hex="00A5"/>
  <outline>
    <contour>
      <point x="361" y="309" type="line"/>
      <point x="195" y="600" type="line"/>
      <point x="37" y="600" type="line"/>
      <point x="221" y="302" type="line"/>
    </contour>
    <contour>
      <point x="438" y="0" type="line"/>
      <point x="438" y="23"/>
      <point x="433" y="27"/>
      <point x="414" y="27" type="curve" smooth="yes"/>
      <point x="143" y="27" type="line"/>
      <point x="143" y="0" type="line"/>
    </contour>
    <contour>
      <point x="360" y="0" type="line"/>
      <point x="361" y="309" type="line"/>
      <point x="221" y="302" type="line"/>
      <point x="220" y="0" type="line"/>
    </contour>
    <contour>
      <point x="279" y="573" type="line"/>
      <point x="279" y="600" type="line"/>
      <point x="10" y="600" type="line"/>
      <point x="10" y="573" type="line"/>
    </contour>
    <contour>
      <point x="361" y="309" type="line"/>
      <point x="489" y="545" type="line" smooth="yes"/>
      <point x="499" y="564"/>
      <point x="505" y="573"/>
      <point x="550" y="573" type="curve" smooth="yes"/>
      <point x="564" y="573"/>
      <point x="569" y="579"/>
      <point x="569" y="600" type="curve"/>
      <point x="390" y="600" type="line"/>
      <point x="390" y="573" type="line"/>
      <point x="470" y="573" type="line"/>
      <point x="326" y="309" type="line"/>
    </contour>
    <contour>
      <point x="94" y="298" type="line"/>
      <point x="487" y="298" type="line"/>
      <point x="487" y="328" type="line"/>
      <point x="94" y="328" type="line"/>
    </contour>
    <contour>
      <point x="94" y="220" type="line"/>
      <point x="487" y="220" type="line"/>
      <point x="487" y="250" type="line"/>
      <point x="94" y="250" type="line"/>
    </contour>
  </outline>
</glyph>
<glyph name="dieresis" format="1">
  <advance width="500"/>
  <unicode hex="00A8"/>
  <outline>
    <contour>
      <point x="193" y="503"/>
      <point x="224" y="532"/>
      <point x="224" y="569" type="curve" smooth="yes"/>
      <point x="224" y="607"/>
      <point x="193" y="637"/>
      <point x="157" y="637" type="curve" smooth="yes"/>
      <point x="119" y="637"/>
      <point x="89" y="607"/>
      <point x="89" y="569" type="curve" smooth="yes"/>
      <point x="89" y="532"/>
      <point x="119" y="503"/>
      <point x="157" y="503" type="curve" smooth="yes"/>
    </contour>
    <contour>
      <point x="380" y="503"/>
      <point x="411" y="532"/>
      <point x="411" y="569" type="curve" smooth="yes"/>
      <point x="411" y="607"/>
      <point x="380" y="637"/>
      <point x="342" y="637" type="curve" smooth="yes"/>
      <point x="306" y="637"/>
      <point x="276" y="607"/>
      <point x="276" y="569" type="curve" smooth="yes"/>
      <point x="276" y="532"/>
      <point x="306" y="503"/>
      <point x="342" y="503" type="curve" smooth="yes"/>
    </contour>
    <contour>
      <point x="251" y="502" type="move" name="_top"/>
    </contour>
  </outline>
</glyph>
<glyph name="plusminus" format="1">
  <advance width="448"/>
  <unicode hex="00B1"/>
  <outline>
    <contour>
      <point x="418" y="253" type="line"/>
      <point x="418" y="295" type="line"/>
      <point x="30" y="295" type="line"/>
      <point x="30" y="253" type="line"/>
    </contour>
    <contour>
      <point x="197" y="113" type="line"/>
      <point x="252" y="113" type="line"/>
      <point x="252" y="435" type="line"/>
      <point x="197" y="435" type="line"/>
    </contour>
    <contour>
      <point x="418" y="28" type="line"/>
      <point x="418" y="70" type="line"/>
      <point x="30" y="70" type="line"/>
      <point x="30" y="28" type="line"/>
    </contour>
  </outline>
</glyph>
<glyph name="acute" format="1">
  <advance width="500"/>
  <unicode hex="00B4"/>
  <outline>
    <contour>
      <point x="259" y="517"/>
      <point x="336" y="529"/>
      <point x="368" y="552" type="curve" smooth="yes"/>
      <point x="384" y="563"/>
      <point x="390" y="579"/>
      <point x="390" y="594" type="curve" smooth="yes"/>
      <point x="390" y="624"/>
      <point x="365" y="654"/>
      <point x="334" y="654" type="curve" smooth="yes"/>
      <point x="324" y="654"/>
      <point x="314" y="651"/>
      <point x="303" y="643" type="curve" smooth="yes"/>
      <point x="269" y="618"/>
      <point x="248" y="572"/>
      <point x="168" y="503" type="curve"/>
      <point x="183" y="481" type="line"/>
    </contour>
    <contour>
      <point x="269" y="500" type="move" name="_top"/>
    </contour>
  </outline>
</glyph>
<glyph name="uni00B5" format="1">
  <advance width="562"/>
  <unicode hex="00B5"/>
  <outline>
    <contour>
      <point x="166" y="-177"/>
      <point x="195" y="-152"/>
      <point x="195" y="-102" type="curve" smooth="yes"/>
      <point x="195" y="-52"/>
      <point x="126" y="82"/>
      <point x="126" y="153" type="curve"/>
      <point x="123" y="153" type="line"/>
      <point x="118" y="47"/>
      <point x="171" y="-9"/>
      <point x="232" y="-9" type="curve" smooth="yes"/>
      <point x="278" y="-9"/>
      <point x="326" y="22"/>
      <point x="359" y="85" type="curve"/>
      <point x="364" y="0" type="line"/>
      <point x="542" y="0" type="line"/>
      <point x="542" y="23"/>
      <point x="537" y="26"/>
      <point x="518" y="26" type="curve" smooth="yes"/>
      <point x="484" y="26" type="line"/>
      <point x="484" y="430" type="line"/>
      <point x="308" y="430" type="line"/>
      <point x="308" y="404" type="line"/>
      <point x="357" y="404" type="line"/>
      <point x="356" y="173" type="line" smooth="yes"/>
      <point x="357" y="86"/>
      <point x="311" y="42"/>
      <point x="269" y="42" type="curve" smooth="yes"/>
      <point x="230" y="42"/>
      <point x="200" y="69"/>
      <point x="200" y="136" type="curve" smooth="yes"/>
      <point x="200" y="430" type="line"/>
      <point x="15" y="430" type="line"/>
      <point x="15" y="404" type="line"/>
      <point x="73" y="404" type="line"/>
      <point x="73" y="153" type="line" smooth="yes"/>
      <point x="73" y="43"/>
      <point x="55" y="-52"/>
      <point x="55" y="-105" type="curve" smooth="yes"/>
      <point x="55" y="-152"/>
      <point x="82" y="-177"/>
      <point x="124" y="-177" type="curve" smooth="yes"/>
    </contour>
  </outline>
</glyph>
<glyph name="Lslash" format="1">
  <advance width="515"/>
  <unicode hex="0141"/>
  <outline>
    <contour>
      <point x="21" y="147" type="line"/>
      <point x="431" y="374" type="line"/>
      <point x="414" y="405" type="line"/>
      <point x="4" y="179" type="line"/>
    </contour>
    <component base="L"/>
  </outline>
</glyph>
<glyph name="lslash" format="1">
  <advance width="319"/>
  <unicode hex="0142"/>
  <outline>
    <contour>
      <point x="4" y="216" type="line"/>
      <point x="338" y="401" type="line"/>
      <point x="321" y="432" type="line"/>
      <point x="-13" y="248" type="line"/>
    </contour>
    <component base="l"/>
  </outline>
</glyph>
<glyph name="dagger" format="1">
  <advance width="465"/>
  <unicode hex="2020"/>
  <outline>
    <contour>
      <point x="281" y="545"/>
      <point x="257" y="555"/>
      <point x="233" y="555" type="curve" smooth="yes"/>
      <point x="206" y="555"/>
      <point x="183" y="544"/>
      <point x="183" y="510" type="curve" smooth="yes"/>
      <point x="183" y="476"/>
      <point x="211" y="431"/>
      <point x="220" y="362" type="curve"/>
      <point x="244" y="362" type="line"/>
      <point x="253" y="431"/>
      <point x="281" y="478"/>
      <point x="281" y="511" type="curve" smooth="yes"/>
    </contour>
    <contour>
      <point x="291" y="300"/>
      <point x="269" y="320"/>
      <point x="233" y="320" type="curve" smooth="yes"/>
      <point x="196" y="320"/>
      <point x="173" y="299"/>
      <point x="173" y="265" type="curve" smooth="yes"/>
      <point x="173" y="191"/>
      <point x="209" y="162"/>
      <point x="218" y="-79" type="curve"/>
      <point x="247" y="-79" type="line"/>
      <point x="256" y="162"/>
      <point x="291" y="193"/>
      <point x="291" y="266" type="curve" smooth="yes"/>
    </contour>
    <contour>
      <point x="414" y="313"/>
      <point x="425" y="335"/>
      <point x="425" y="361" type="curve" smooth="yes"/>
      <point x="425" y="388"/>
      <point x="413" y="411"/>
      <point x="379" y="411" type="curve" smooth="yes"/>
      <point x="345" y="411"/>
      <point x="295" y="380"/>
      <point x="226" y="371" type="curve"/>
      <point x="226" y="352" type="line"/>
      <point x="295" y="343"/>
      <point x="347" y="313"/>
      <point x="380" y="313" type="curve" smooth="yes"/>
    </contour>
    <contour>
      <point x="51" y="411"/>
      <point x="40" y="389"/>
      <point x="40" y="363" type="curve" smooth="yes"/>
      <point x="40" y="336"/>
      <point x="52" y="313"/>
      <point x="86" y="313" type="curve" smooth="yes"/>
      <point x="120" y="313"/>
      <point x="170" y="343"/>
      <point x="239" y="352" type="curve"/>
      <point x="239" y="371" type="line"/>
      <point x="170" y="380"/>
      <point x="118" y="411"/>
      <point x="85" y="411" type="curve" smooth="yes"/>
    </contour>
  </outline>
</glyph>
<glyph name="uni2206" format="1">
  <advance width="558"/>
  <unicode hex="2206"/>
  <outline>
    <contour>
      <point x="52" y="0" type="line"/>
      <point x="278" y="600" type="line"/>
      <point x="229" y="600" type="line"/>
      <point x="0" y="0" type="line"/>
    </contour>
    <contour>
      <point x="558" y="0" type="line"/>
      <point x="303" y="600" type="line"/>
      <point x="238" y="600" type="line"/>
      <point x="214" y="495" type="line"/>
      <point x="416" y="0" type="line"/>
    </contour>
    <contour>
      <point x="481" y="0" type="line"/>
      <point x="456" y="71" type="line"/>
      <point x="46" y="71" type="line"/>
      <point x="23" y="0" type="line"/>
    </contour>
  </outline>
</glyph>
<glyph name="radical" format="1">
  <advance width="450"/>
  <unicode hex="221A"/>
  <outline>
    <contour>
      <point x="168" y="439" type="line"/>
      <point x="-15" y="359" type="line"/>
      <point x="-4" y="331" type="line"/>
      <point x="71" y="364" type="line"/>
      <point x="179" y="65" type="line" smooth="yes"/>
      <point x="200" y="6"/>
      <point x="216" y="-5"/>
      <point x="253" y="-5" type="curve" smooth="yes"/>
      <point x="295" y="-5" type="line"/>
      <point x="480" y="724" type="line"/>
      <point x="441" y="733" type="line"/>
      <point x="265" y="51" type="line"/>
      <point x="298" y="51" type="line"/>
    </contour>
  </outline>
</glyph>
<glyph name="integral" format="1">
  <advance width="395"/>
  <unicode hex="222B"/>
  <outline>
    <contour>
      <point x="200" y="-290"/>
      <point x="278" y="-201"/>
      <point x="278" y="89" type="curve" smooth="yes"/>
      <point x="278" y="245"/>
      <point x="244" y="426"/>
      <point x="244" y="578" type="curve" smooth="yes"/>
      <point x="244" y="638"/>
      <point x="253" y="679"/>
      <point x="281" y="679" type="curve" smooth="yes"/>
      <point x="330" y="679"/>
      <point x="286" y="556"/>
      <point x="373" y="556" type="curve" smooth="yes"/>
      <point x="413" y="556"/>
      <point x="435" y="582"/>
      <point x="435" y="611" type="curve" smooth="yes"/>
      <point x="435" y="665"/>
      <point x="394" y="705"/>
      <point x="312" y="705" type="curve" smooth="yes"/>
      <point x="200" y="705"/>
      <point x="122" y="624"/>
      <point x="122" y="347" type="curve" smooth="yes"/>
      <point x="122" y="178"/>
      <point x="153" y="-21"/>
      <point x="153" y="-150" type="curve" smooth="yes"/>
      <point x="153" y="-220"/>
      <point x="143" y="-264"/>
      <point x="109" y="-264" type="curve" smooth="yes"/>
      <point x="54" y="-264"/>
      <point x="107" y="-139"/>
      <point x="18" y="-139" type="curve" smooth="yes"/>
      <point x="-18" y="-139"/>
      <point x="-40" y="-164"/>
      <point x="-40" y="-197" type="curve" smooth="yes"/>
      <point x="-40" y="-254"/>
      <point x="9" y="-290"/>
      <point x="79" y="-290" type="curve" smooth="yes"/>
    </contour>
  </outline>
</glyph>
<glyph name="fi" format="1">
  <advance width="601"/>
  <unicode hex="FB01"/>
  <outline>
    <contour>
      <point x="293" y="22"/>
      <point x="288" y="26"/>
      <point x="269" y="26" type="curve" smooth="yes"/>
      <point x="228" y="26" type="line"/>
      <point x="228" y="435" type="line"/>
      <point x="101" y="443" type="line"/>
      <point x="101" y="78" type="line" smooth="yes"/>
      <point x="101" y="36"/>
      <point x="67" y="26"/>
      <point x="25" y="26" type="curve"/>
      <point x="25" y="0" type="line"/>
      <point x="293" y="0" type="line"/>
    </contour>
    <contour>
      <point x="503" y="498"/>
      <point x="529" y="524"/>
      <point x="529" y="555" type="curve" smooth="yes"/>
      <point x="529" y="607"/>
      <point x="455" y="655"/>
      <point x="336" y="655" type="curve" smooth="yes"/>
      <point x="211" y="655"/>
      <point x="101" y="601"/>
      <point x="101" y="443" type="curve"/>
      <point x="228" y="435" type="line"/>
      <point x="228" y="585"/>
      <point x="246" y="632"/>
      <point x="320" y="632" type="curve" smooth="yes"/>
      <point x="404" y="632"/>
      <point x="360" y="498"/>
      <point x="466" y="498" type="curve" smooth="yes"/>
    </contour>
    <contour>
      <point x="20" y="404" type="line"/>
      <point x="331" y="404" type="line"/>
      <point x="331" y="430" type="line"/>
      <point x="20" y="430" type="line"/>
    </contour>
    <contour>
      <point x="586" y="22"/>
      <point x="581" y="26"/>
      <point x="562" y="26" type="curve" smooth="yes"/>
      <point x="525" y="26" type="line"/>
      <point x="525" y="430" type="line"/>
      <point x="320" y="430" type="line"/>
      <point x="320" y="404" type="line"/>
      <point x="398" y="404" type="line"/>
      <point x="398" y="78" type="line" smooth="yes"/>
      <point x="398" y="36"/>
      <point x="384" y="26"/>
      <point x="346" y="26" type="curve"/>
      <point x="346" y="0" type="line"/>
      <point x="586" y="0" type="line"/>
    </contour>
  </outline>
</glyph>
<glyph name="czechcaron" format="1">
  <advance width="500"/>
  <outline>
    <contour>
      <point x="288" y="453"/>
      <point x="321" y="520"/>
      <point x="321" y="576" type="curve" smooth="yes"/>
      <point x="321" y="623"/>
      <point x="296" y="659"/>
      <point x="247" y="659" type="curve" smooth="yes"/>
      <point x="209" y="659"/>
      <point x="179" y="627"/>
      <point x="179" y="588" type="curve" smooth="yes"/>
      <point x="179" y="550"/>
      <point x="207" y="525"/>
      <point x="236" y="519" type="curve" smooth="yes"/>
      <point x="255" y="515"/>
      <point x="262" y="508"/>
      <point x="262" y="494" type="curve" smooth="yes"/>
      <point x="262" y="477"/>
      <point x="247" y="447"/>
      <point x="223" y="422" type="curve"/>
      <point x="244" y="406" type="line"/>
    </contour>
  </outline>
</glyph>
<glyph name="four.numr" format="1">
  <advance width="410"/>
  <outline>
    <contour>
      <point x="166" y="119"/>
      <point x="323" y="209"/>
      <point x="323" y="286" type="curve" smooth="yes"/>
      <point x="323" y="316"/>
      <point x="300" y="333"/>
      <point x="266" y="333" type="curve" smooth="yes"/>
      <point x="174" y="333"/>
      <point x="233" y="202"/>
      <point x="26" y="53" type="curve"/>
      <point x="56" y="46" type="line"/>
    </contour>
    <contour>
      <point x="390" y="-65" type="line"/>
      <point x="390" y="-46"/>
      <point x="386" y="-42"/>
      <point x="370" y="-42" type="curve" smooth="yes"/>
      <point x="127" y="-42" type="line"/>
      <point x="127" y="-65" type="line"/>
    </contour>
    <contour>
      <point x="390" y="51" type="line"/>
      <point x="26" y="53" type="line"/>
      <point x="31" y="28" type="line"/>
      <point x="390" y="26" type="line"/>
    </contour>
    <contour>
      <point x="318" y="-65" type="line"/>
      <point x="318" y="182" type="line"/>
      <point x="299" y="182" type="line"/>
      <point x="290" y="157" type="line" smooth="yes"/>
      <point x="278" y="124"/>
      <point x="252" y="121"/>
      <point x="218" y="121" type="curve" smooth="yes"/>
      <point x="206" y="121" type="line"/>
      <point x="206" y="-65" type="line"/>
    </contour>
  </outline>
</glyph>
<glyph name="seven.numr" format="1">
  <advance width="485"/>
  <outline>
    <contour>
      <point x="320" y="-15"/>
      <point x="195" y="171"/>
      <point x="480" y="573" type="curve"/>
      <point x="448" y="581" type="line"/>
      <point x="248" y="287"/>
      <point x="102" y="151"/>
      <point x="102" y="50" type="curve" smooth="yes"/>
      <point x="102" y="7"/>
      <point x="136" y="-15"/>
      <point x="178" y="-15" type="curve" smooth="yes"/>
    </contour>
    <contour>
      <point x="65" y="414" type="line"/>
      <point x="83" y="460" type="line" smooth="yes"/>
      <point x="99" y="501"/>
      <point x="120" y="503"/>
      <point x="161" y="503" type="curve"/>
      <point x="42" y="603" type="line"/>
      <point x="40" y="414" type="line"/>
    </contour>
    <contour>
      <point x="410" y="503" type="line"/>
      <point x="480" y="573" type="line"/>
      <point x="480" y="603" type="line"/>
      <point x="42" y="603" type="line"/>
      <point x="42" y="503" type="line"/>
    </contour>
  </outline>
</glyph>
<glyph name="two.numr" format="1">
  <advance width="320"/>
  <outline>
    <contour>
      <point x="67" y="75" type="line"/>
      <point x="108" y="139"/>
      <point x="291" y="125"/>
      <point x="291" y="244" type="curve" smooth="yes"/>
      <point x="291" y="312"/>
      <point x="216" y="340"/>
      <point x="147" y="340" type="curve" smooth="yes"/>
      <point x="87" y="340"/>
      <point x="12" y="312"/>
      <point x="12" y="253" type="curve" smooth="yes"/>
      <point x="12" y="226"/>
      <point x="27" y="206"/>
      <point x="63" y="206" type="curve" smooth="yes"/>
      <point x="160" y="206"/>
      <point x="90" y="319"/>
      <point x="145" y="319" type="curve" smooth="yes"/>
      <point x="179" y="319"/>
      <point x="181" y="288"/>
      <point x="181" y="244" type="curve" smooth="yes"/>
      <point x="181" y="105"/>
      <point x="10" y="144"/>
      <point x="10" y="5" type="curve"/>
    </contour>
    <contour>
      <point x="294" y="0" type="line"/>
      <point x="294" y="75" type="line"/>
      <point x="67" y="75" type="line"/>
      <point x="10" y="5" type="line"/>
      <point x="10" y="0" type="line"/>
    </contour>
    <contour>
      <point x="295" y="124" type="line"/>
      <point x="279" y="124" type="line"/>
      <point x="267" y="93" type="line" smooth="yes"/>
      <point x="260" y="76"/>
      <point x="243" y="75"/>
      <point x="216" y="75" type="curve"/>
      <point x="294" y="0" type="line"/>
    </contour>
  </outline>
</glyph>
<glyph name="zero.tf" format="1">
  <advance width="624"/>
  <outline>
    <contour>
      <point x="586" y="503"/>
      <point x="474" y="610"/>
      <point x="316" y="610" type="curve" smooth="yes"/>
      <point x="156" y="610"/>
      <point x="38" y="497"/>
      <point x="38" y="302" type="curve" smooth="yes"/>
      <point x="38" y="102"/>
      <point x="151" y="-10"/>
      <point x="311" y="-10" type="curve" smooth="yes"/>
      <point x="470" y="-10"/>
      <point x="586" y="103"/>
      <point x="586" y="298" type="curve" smooth="yes"/>
    </contour>
    <contour>
      <point x="432" y="98"/>
      <point x="407" y="17"/>
      <point x="314" y="17" type="curve" smooth="yes"/>
      <point x="221" y="17"/>
      <point x="192" y="88"/>
      <point x="192" y="298" type="curve" smooth="yes"/>
      <point x="192" y="498"/>
      <point x="220" y="583"/>
      <point x="313" y="583" type="curve" smooth="yes"/>
      <point x="404" y="583"/>
      <point x="432" y="500"/>
      <point x="432" y="303" type="curve" smooth="yes"/>
    </contour>
  </outline>
</glyph>
